<mxfile host="app.diagrams.net" modified="2023-11-13T15:40:54.437Z" agent="Mozilla/5.0 (Macintosh; Intel Mac OS X 10_15_7) AppleWebKit/605.1.15 (KHTML, like Gecko) Version/17.1 Safari/605.1.15" version="22.1.0" etag="aYchi1so5wUFVcOi0vOH" type="github">
  <diagram name="Page-1" id="wnjMrk7Iqljs6oi2Uc38">
    <mxGraphModel>
      <root>
        <mxCell id="0" />
        <mxCell id="1" parent="0" />
      </root>
    </mxGraphModel>
  </diagram>
</mxfile>
